<svg width="80" height="20" viewBox="0 0 80 20" xmlns="http://www.w3.org/2000/svg"><g transform="translate(11 1)" fill="#E46B44"><path d="M10 13.203c-.998 1.415-2.535 2.39-4.53 2.39-3.095 0-5.47-2.41-5.47-5.5 0-3.088 2.375-5.5 5.47-5.5 1.995 0 3.352.917 4.27 2.153L8.084 8.002c-.559-.838-1.497-1.336-2.615-1.336-1.856 0-3.034 1.574-3.034 3.428 0 1.853 1.178 3.427 3.034 3.427 1.198 0 2.176-.577 2.934-1.654L10 13.203m9.628-3.109c0-1.854-1.124-3.428-3.026-3.428-1.86 0-3.108 1.574-3.108 3.428 0 1.853 1.248 3.427 3.108 3.427 1.902 0 3.026-1.574 3.026-3.427M22 4.833v10.522h-2.372v-1.276c-.797.977-1.942 1.515-3.291 1.515-2.904 0-5.337-2.412-5.337-5.5 0-3.089 2.433-5.5 5.337-5.5 1.35 0 2.494.538 3.291 1.514V4.833H22"/><polyline points="29.8142315 15.5938567 27.1855642 15.5938567 23 5.59385666 25.6486853 5.59385666 28.4997957 12.9044482 31.3509063 5.59385666 34 5.59385666 29.8142315 15.5938567"/><path d="M35.284 15.594h2.432V4.92h-2.432v10.674zM35 2.09c0-.83.669-1.496 1.5-1.496S38 1.26 38 2.09s-.669 1.495-1.5 1.495S35 2.92 35 2.09zm12.628 8.004c0-1.854-1.124-3.428-3.026-3.428-1.86 0-3.108 1.574-3.108 3.428 0 1.853 1.248 3.427 3.108 3.427 1.902 0 3.026-1.574 3.026-3.427M50 4.833v10.522h-2.372v-1.276c-.797.977-1.942 1.515-3.292 1.515-2.903 0-5.336-2.412-5.336-5.5 0-3.089 2.433-5.5 5.336-5.5 1.35 0 2.495.538 3.292 1.514V4.833H50m8.538 2.46c-.295-.184-.841-.287-1.304-.287-1.513 0-2.711 1.145-2.711 3.538v5.05H52V4.798h2.523V6.23a3.665 3.665 0 013.026-1.636c.61 0 1.199.184 1.451.368l-.462 2.33"/></g></svg>