<svg width="25" height="25" viewBox="0 0 25 25" fill="none" xmlns="http://www.w3.org/2000/svg"><circle cx="12.493" cy="12.906" r="12" fill="#141A26"/><g clip-path="url(#clip0)" fill="#fff"><path fill-rule="evenodd" clip-rule="evenodd" d="M6.545 14.915a.601.601 0 01.548-.342h10.8a.6.6 0 01.547.342.561.561 0 01-.1.621c-1.43 1.536-3.521 2.504-5.847 2.504-2.327 0-4.418-.968-5.847-2.504a.561.561 0 01-.101-.62zm2.123.813a6.822 6.822 0 003.825 1.156 6.822 6.822 0 003.824-1.156h-7.65zm2.11 2.745c0-.24.256-.433.572-.433h2.286c.315 0 .57.194.57.433 0 .24-.255.433-.57.433H11.35c-.316 0-.572-.194-.572-.433zm3.858-12.567c.355 0 .642.291.642.65 0 1.436 1.152 2.6 2.572 2.6.355 0 .643.291.643.65 0 .36-.288.65-.643.65-1.42 0-2.572 1.164-2.572 2.6 0 .36-.287.65-.643.65a.647.647 0 01-.642-.65c0-1.436-1.152-2.6-2.572-2.6a.647.647 0 01-.643-.65c0-.359.288-.65.643-.65 1.42 0 2.572-1.164 2.572-2.6 0-.359.287-.65.643-.65zm0 2.807a3.901 3.901 0 01-1.082 1.093 3.9 3.9 0 011.082 1.094 3.898 3.898 0 011.08-1.094 3.9 3.9 0 01-1.08-1.093z"/><path d="M10.778 7.64a.862.862 0 01-.857.866.862.862 0 01-.857-.866c0-.479.384-.867.857-.867.474 0 .857.388.857.867z"/><path fill-rule="evenodd" clip-rule="evenodd" d="M8.207 9.373c.316 0 .571.323.571.722v.722h.572c.315 0 .571.324.571.723 0 .399-.256.722-.571.722h-.572v.722c0 .399-.255.722-.571.722-.316 0-.571-.323-.571-.722v-.722h-.572c-.315 0-.571-.324-.571-.722 0-.4.256-.723.571-.723h.572v-.722c0-.399.255-.722.571-.722z"/></g><defs><clipPath id="clip0"><rect width="13" height="12" fill="#fff" transform="rotate(90 6.293 12.2)"/></clipPath></defs></svg>