<svg width="24" height="24" viewBox="0 0 24 24" xmlns="http://www.w3.org/2000/svg"><path d="M12 24C5.373 24 0 18.627 0 12S5.373 0 12 0s12 5.373 12 12-5.373 12-12 12zm0-19c-1.901 0-2.14.008-2.886.042-.745.034-1.254.152-1.7.326a3.43 3.43 0 00-1.24.807c-.388.389-.628.78-.806 1.24-.174.445-.292.954-.326 1.699C5.008 9.86 5 10.099 5 12c0 1.901.008 2.14.042 2.886.034.745.152 1.254.326 1.7.178.46.418.85.807 1.24.389.388.78.628 1.24.807.445.173.954.29 1.699.325.747.034.985.042 2.886.042 1.901 0 2.14-.008 2.886-.042.745-.034 1.254-.152 1.7-.325.46-.18.85-.419 1.24-.808.388-.389.628-.78.807-1.24.173-.445.29-.954.325-1.699.034-.747.042-.985.042-2.886 0-1.901-.008-2.14-.042-2.886-.034-.745-.152-1.254-.325-1.7a3.432 3.432 0 00-.808-1.24 3.432 3.432 0 00-1.24-.806c-.445-.174-.954-.292-1.699-.326C14.14 5.008 13.901 5 12 5zm0 1.261c1.87 0 2.09.007 2.829.041.682.031 1.053.145 1.3.241.326.127.56.279.804.524.245.245.397.478.524.805.096.246.21.617.24 1.3.035.738.042.959.042 2.828 0 1.87-.007 2.09-.041 2.829-.031.682-.145 1.053-.241 1.3-.127.326-.279.56-.524.804a2.169 2.169 0 01-.805.524c-.246.096-.617.21-1.3.24-.737.035-.959.042-2.828.042-1.87 0-2.09-.007-2.829-.041-.682-.031-1.053-.145-1.3-.241a2.169 2.169 0 01-.804-.524 2.169 2.169 0 01-.524-.805c-.096-.246-.21-.617-.24-1.3-.035-.738-.042-.959-.042-2.828 0-1.87.007-2.09.041-2.829.031-.682.145-1.053.241-1.3.127-.326.279-.56.524-.804.245-.245.478-.397.805-.524.246-.096.617-.21 1.3-.24.738-.035.959-.042 2.828-.042zm0 8.072a2.333 2.333 0 110-4.666 2.333 2.333 0 010 4.666zm0-5.928a3.595 3.595 0 100 7.19 3.595 3.595 0 000-7.19zm4.577-.142a.84.84 0 10-1.68 0 .84.84 0 001.68 0z" fill="#D8D8D8" fill-rule="evenodd"/></svg>