<?xml version="1.0" encoding="UTF-8"?>
<svg width="343px" height="98px" viewBox="0 0 343 98" version="1.1" xmlns="http://www.w3.org/2000/svg" xmlns:xlink="http://www.w3.org/1999/xlink">
    <!-- Generator: Sketch 63.1 (92452) - https://sketch.com -->
    <title>Group 3</title>
    <desc>Created with Sketch.</desc>
    <g id="Page-1" stroke="none" stroke-width="1" fill="none" fill-rule="evenodd">
        <g id="Artboard" transform="translate(-2083.000000, -84.000000)">
            <g id="Group-3" transform="translate(2083.000000, 84.000000)">
                <g id="Logo_horizontal_RGB-Copy-25">
                    <path d="M0,38.4991979 C0,33.2399375 4.25784813,28.9752604 9.50943458,28.9752604 C14.761021,28.9752604 19.020472,33.2399375 19.020472,38.4991979 C19.020472,43.7600625 14.761021,48.0247396 9.50943458,48.0247396 C4.25784813,48.0247396 0,43.7600625 0,38.4991979 L0,38.4991979 Z M66.8008528,48.0247396 C61.548465,48.0247396 57.2914182,43.7600625 57.2914182,38.4991979 C57.2914182,33.2399375 61.548465,28.9752604 66.8008528,28.9752604 C72.0524393,28.9752604 76.3118902,33.2399375 76.3118902,38.4991979 C76.3118902,43.7600625 72.0524393,48.0247396 66.8008528,48.0247396 Z M66.8016542,0.401041667 C45.7921028,0.401041667 28.7607103,17.4589479 28.7607103,38.4991979 C28.7607103,59.5418542 45.7921028,76.5989583 66.8016542,76.5989583 C87.812007,76.5989583 104.842598,59.5418542 104.842598,38.4991979 C104.842598,17.4589479 87.812007,0.401041667 66.8016542,0.401041667 L66.8016542,0.401041667 Z" id="Fill-1" fill="#DA3743"></path>
                    <path d="M338.684451,35.5515417 C339.284701,35.5515417 339.640523,35.2820417 339.640523,34.7919688 C339.640523,34.3484167 339.396096,34.0572604 338.727727,34.0572604 L338.105037,34.0572604 L338.105037,35.5515417 L338.684451,35.5515417 Z M337.192241,33.3008958 L338.882397,33.3008958 C339.817633,33.3008958 340.619035,33.6786771 340.619035,34.7486563 C340.619035,35.2820417 340.28485,35.7969792 339.795995,35.9734375 L340.820187,37.8246458 L339.795995,37.8246458 L339.01543,36.2645938 L338.105037,36.2645938 L338.105037,37.8246458 L337.192241,37.8246458 L337.192241,33.3008958 Z M342.108841,35.6173125 C342.108841,33.523875 340.662311,32.0295938 338.795846,32.0295938 C336.925374,32.0295938 335.501283,33.523875 335.501283,35.6173125 C335.501283,37.7348125 336.925374,39.1825729 338.795846,39.1825729 C340.662311,39.1825729 342.108841,37.7348125 342.108841,35.6173125 Z M334.610124,35.6173125 C334.610124,33.0097396 336.501432,31.2267083 338.795846,31.2267083 C341.108692,31.2267083 343,33.0097396 343,35.6173125 C343,38.2248854 341.108692,40.0079167 338.795846,40.0079167 C336.501432,40.0079167 334.610124,38.2248854 334.610124,35.6173125 Z M306.694091,53.4396042 C307.257477,53.4396042 307.733509,52.9687813 307.733509,52.4049167 L307.733509,48.5805833 C307.733509,48.0159167 307.263888,47.5458958 306.700502,47.5458958 L306.533811,47.5458958 C306.067395,47.5458958 305.600979,47.0814896 305.600979,46.613875 L305.60178,46.4454375 L305.60178,23.9534167 C305.60178,23.4360729 305.084876,22.9187292 304.568773,22.9187292 L300.76532,22.9187292 C300.249217,22.9187292 299.733114,23.4360729 299.733114,23.9534167 L299.733114,49.0554167 L299.748341,49.7091146 C299.748341,51.5779688 301.614005,53.4452188 303.478867,53.4452188 L306.694091,53.4396042 Z M139.333332,28.9054792 C144.505579,28.9054792 148.872418,33.2936771 148.872418,38.4975938 C148.872418,43.7480312 144.591329,48.0119062 139.333332,48.0119062 C134.098575,48.0119062 129.841528,43.7480312 129.841528,38.4975938 C129.841528,33.2078542 134.098575,28.9054792 139.333332,28.9054792 Z M139.333332,22.8625833 C130.772757,22.8625833 123.808575,29.8768021 123.808575,38.4975938 C123.808575,47.22025 130.623696,54.054 139.333332,54.054 C148.066208,54.054 154.905371,47.22025 154.905371,38.4975938 C154.905371,29.8768021 147.917147,22.8625833 139.333332,22.8625833 Z M263.218841,47.2435104 C262.937549,48.0431875 261.247393,49.5478958 259.322425,49.5478958 C257.303694,49.5478958 256.176923,48.3247187 256.176923,46.4911563 C256.176923,44.56375 257.538505,43.3878958 260.026857,43.3878958 C261.763495,43.3878958 263.218841,44.0464063 263.218841,44.0464063 L263.218841,47.2435104 Z M260.684007,31.2090625 C257.162647,31.2090625 253.735051,32.1025833 253.26543,32.2910729 C252.79661,32.4314375 252.37347,32.8076146 252.561799,33.6072917 L253.031421,36.0528438 C253.125185,36.7105521 253.547523,37.2278958 254.251956,36.9928854 C255.519773,36.6167083 258.383182,36.1932083 260.355432,36.1932083 C262.655456,36.1932083 263.453652,37.5102292 263.359888,40.2846354 C263.359888,40.2846354 261.388439,39.6734479 259.181379,39.6734479 C253.68857,39.6734479 250.543068,42.6355417 250.543068,46.4911563 C250.543068,51.1464479 253.547523,53.9208542 257.867079,53.9208542 C261.247393,53.9208542 263.407171,52.4161458 264.674988,51.1937708 L264.674988,52.3608021 C264.674988,52.9254688 265.14461,53.3954896 265.707995,53.3954896 L266.091065,53.3954896 C266.130334,53.4035104 266.176815,53.4035104 266.224098,53.4035104 L267.820491,53.4035104 C268.383876,53.4035104 268.853498,52.9334896 268.853498,52.3688229 L268.853498,40.6608125 C268.853498,34.7358229 267.444633,31.2090625 260.684007,31.2090625 Z M221.26946,31.2090625 C217.114192,31.2090625 215.09546,33.4428646 214.28925,34.3444063 L214.28925,32.7137708 C214.28925,32.1499063 213.819629,31.6790833 213.256243,31.6790833 L210.799946,31.6790833 C210.283042,31.6790833 209.766939,32.1025833 209.766939,32.7137708 L209.766939,52.3688229 C209.766939,52.9334896 210.283042,53.4035104 210.799946,53.4035104 L214.274023,53.4035104 C215.30703,53.4035104 215.635605,53.1685 215.635605,52.3688229 L215.635605,39.9549792 C216.151708,38.4502708 217.51329,36.5693854 220.330217,36.5693854 C222.959617,36.5693854 224.086388,38.3099063 224.086388,41.1308333 L224.086388,52.3688229 C224.086388,52.9334896 224.556009,53.4035104 225.119395,53.4035104 L228.922047,53.4035104 C229.438951,53.4035104 229.955054,52.9334896 229.955054,52.3688229 L229.955054,41.1308333 C229.955054,35.8643542 228.171133,31.2090625 221.26946,31.2090625 Z M169.577437,48.5605313 C166.854273,48.5605313 165.070353,47.3373542 165.070353,47.3373542 L165.070353,39.5788021 C165.539974,38.3564271 167.041801,36.5693854 169.85953,36.5693854 C173.239843,36.5693854 174.976481,39.5322813 174.976481,42.5882188 C174.976481,45.6449583 173.146079,48.5605313 169.577437,48.5605313 Z M170.657727,31.2090625 C166.197124,31.2090625 163.723998,34.2577813 163.575738,34.4454688 L163.575738,32.7137708 C163.575738,32.1499063 163.106117,31.6790833 162.542731,31.6790833 L160.234694,31.6790833 C159.671308,31.6790833 159.201687,32.1499063 159.201687,32.7137708 L159.201687,61.2085833 C159.201687,61.7259271 159.671308,62.2432708 160.234694,62.2432708 L164.037346,62.2432708 C164.55425,62.2432708 165.070353,61.7259271 165.070353,61.2085833 L165.070353,53.0273333 C166.056077,53.4035104 168.122091,53.9208542 170.281869,53.9208542 C176.761203,53.9208542 181.033477,48.9367083 181.033477,42.5882188 C181.033477,36.0055208 176.572874,31.2090625 170.657727,31.2090625 Z M325.487766,39.8122083 C325.394002,37.6971146 323.704647,36.0512396 321.309257,36.0512396 C318.680659,36.0512396 316.990502,37.6497917 316.70921,39.8122083 L325.487766,39.8122083 Z M321.451105,31.2082604 C327.084159,31.2082604 331.403715,35.3935313 331.403715,41.2703958 C331.403715,41.59925 331.356432,42.3516042 331.309951,42.6812604 C331.262668,43.2459271 330.746565,43.668625 330.276944,43.668625 L316.379834,43.668625 C316.427117,46.3483854 318.633376,48.6992917 321.77968,48.6992917 C323.938657,48.6992917 325.441285,47.9004167 326.427009,47.1015417 C326.943914,46.6772396 327.506498,46.6307187 327.835874,47.1015417 L329.666276,49.5454896 C330.042133,49.9689896 330.088614,50.4863333 329.572512,50.9563542 C327.694827,52.5549062 325.018946,53.91925 321.497586,53.91925 C315.019054,53.91925 310.51197,48.7466146 310.51197,42.5400938 C310.51197,36.4274167 315.019054,31.2082604 321.451105,31.2082604 Z M284.706829,48.5605313 C281.889902,48.5605313 280.387273,46.7734896 279.917652,45.5511146 L279.917652,37.7925625 C279.917652,37.7925625 281.701572,36.5693854 284.424736,36.5693854 C287.993379,36.5693854 289.824582,39.4849583 289.824582,42.5416979 C289.824582,45.5976354 288.087143,48.5605313 284.706829,48.5605313 Z M285.222932,31.2090625 C283.063154,31.2090625 280.904178,31.7264063 279.917652,32.1499063 L279.917652,23.8740104 C279.917652,23.3566667 279.44803,22.8393229 278.884645,22.8393229 L275.081993,22.8393229 C274.565089,22.8393229 274.048986,23.3566667 274.048986,23.8740104 L274.048986,52.3688229 C274.048986,52.9334896 274.565089,53.4035104 275.081993,53.4035104 L276.724867,53.4035104 C276.756121,53.4035104 276.788178,53.4035104 276.819432,53.3954896 L277.257799,53.3954896 C277.828397,53.3954896 278.298019,52.9254688 278.298019,52.3608021 L278.298019,50.7542292 L278.321259,50.6764271 C278.321259,50.6764271 280.809612,53.9208542 285.551507,53.9208542 C291.467456,53.9208542 295.739729,48.7482188 295.739729,42.5416979 C295.739729,36.1932083 291.654984,31.2090625 285.222932,31.2090625 Z M252.005626,22.8393229 L229.922998,22.8393229 C229.406895,22.8393229 229.031037,23.2628229 229.031037,23.7328438 L229.031037,27.5884583 C229.031037,28.0584792 229.406895,28.4819792 229.922998,28.4819792 L237.888932,28.4819792 L237.888932,52.5099896 C237.888932,52.9800104 238.311271,53.4035104 238.780893,53.4035104 L243.147731,53.4035104 C243.616551,53.4035104 244.039692,52.9800104 244.039692,52.5099896 L244.039692,28.4819792 L252.005626,28.4819792 C252.521729,28.4819792 252.897586,28.0584792 252.897586,27.5884583 L252.897586,23.7328438 C252.897586,23.2628229 252.521729,22.8393229 252.005626,22.8393229 Z M199.436869,39.8122083 C199.342304,37.6971146 197.652949,36.0512396 195.25836,36.0512396 C192.629762,36.0512396 190.938804,37.6497917 190.658313,39.8122083 L199.436869,39.8122083 Z M195.399407,31.2082604 C201.033262,31.2082604 205.352016,35.3935313 205.352016,41.2703958 C205.352016,41.59925 205.305535,42.3516042 205.259054,42.6812604 C205.21097,43.2459271 204.694867,43.668625 204.225245,43.668625 L190.328937,43.668625 C190.37622,46.3483854 192.582479,48.6992917 195.727981,48.6992917 C197.887759,48.6992917 199.390388,47.9004167 200.376112,47.1015417 C200.892215,46.6772396 201.4556,46.6307187 201.784175,47.1015417 L203.615379,49.5454896 C203.991236,49.9689896 204.037717,50.4863333 203.520813,50.9563542 C201.643129,52.5549062 198.967248,53.91925 195.445888,53.91925 C188.967355,53.91925 184.460271,48.7466146 184.460271,42.5400938 C184.460271,36.4274167 188.967355,31.2082604 195.399407,31.2082604 L195.399407,31.2082604 Z" id="Fill-2" fill="#141A26"></path>
                </g>
                <g id="Group-Copy-3" transform="translate(159.000000, 77.000000)" fill="#141A26">
                    <path d="M3.4841958,16.0588235 C3.72373427,16.0588235 3.96327273,15.8364706 3.96327273,15.5696471 L3.96327273,7.854 L6.81595804,7.854 C7.07727273,7.854 7.29503497,7.60941176 7.29503497,7.36482353 L7.29503497,6.27529412 C7.29503497,5.98623529 7.07727273,5.78611765 6.81595804,5.78611765 L3.96327273,5.78611765 L3.96327273,4.60764706 C3.96327273,3.318 4.42057343,2.38411765 5.55293706,2.38411765 C6.20622378,2.38411765 6.61997203,2.53976471 7.16437762,2.89552941 C7.42569231,3.07341176 7.66523077,3.05117647 7.81766434,2.80658824 L8.44917483,1.87270588 C8.55805594,1.71705882 8.53627972,1.45023529 8.36206993,1.29458824 C7.90476923,0.872117647 6.85951049,0.271764706 5.50938462,0.271764706 C3.07044755,0.271764706 1.78565035,1.85047059 1.78565035,4.60764706 L1.78565035,5.78611765 L0.479076923,5.78611765 C0.195986014,5.78611765 0,5.98623529 0,6.27529412 L0,7.36482353 C0,7.60941176 0.195986014,7.854 0.479076923,7.854 L1.78565035,7.854 L1.78565035,15.5696471 C1.78565035,15.8364706 2.02518881,16.0588235 2.26472727,16.0588235 L3.4841958,16.0588235 Z M10.7356783,16.0588235 C11.1494266,16.0588235 11.4325175,16.0143529 11.4325175,15.5696471 L11.4325175,9.05470588 C11.5196224,8.87682353 12.3253427,7.67611765 13.8061259,7.67611765 C14.110993,7.67611765 14.5682937,7.78729412 14.7207273,7.87623529 C14.9384895,7.98741176 15.1998042,7.92070588 15.3304615,7.63164706 L15.8530909,6.51988235 C16.1797343,5.83058824 14.982042,5.56376471 14.0238881,5.56376471 C12.1946853,5.56376471 11.1494266,6.80894118 10.9752168,7.07576471 L10.6921259,6.14188235 C10.6485734,5.94176471 10.4525874,5.78611765 10.2566014,5.78611765 L9.73397203,5.78611765 C9.47265734,5.78611765 9.2548951,6.03070588 9.2548951,6.27529412 L9.2548951,15.5696471 C9.2548951,15.8364706 9.47265734,16.0588235 9.73397203,16.0588235 L10.7356783,16.0588235 Z M22.1681958,16.3034118 C24.9773287,16.3034118 27.2856084,13.8352941 27.2856084,10.9002353 C27.2856084,8.00964706 24.9773287,5.56376471 22.1681958,5.56376471 C19.3372867,5.56376471 17.029007,8.00964706 17.029007,10.9002353 C17.029007,13.8352941 19.3372867,16.3034118 22.1681958,16.3034118 Z M22.1681958,14.1910588 C20.4696503,14.1910588 19.1630769,12.7902353 19.1630769,10.9002353 C19.1630769,9.05470588 20.4696503,7.67611765 22.1681958,7.67611765 C23.844965,7.67611765 25.1515385,9.05470588 25.1515385,10.9002353 C25.1515385,12.7902353 23.844965,14.1910588 22.1681958,14.1910588 Z M31.4013147,16.0588235 C31.6408531,16.0588235 31.8803916,15.8364706 31.8803916,15.5696471 L31.8803916,9.16588235 C31.9892727,8.81011765 32.7514406,7.67611765 34.254,7.67611765 C35.6476783,7.67611765 36.2356364,8.65447059 36.2356364,10.3221176 L36.2356364,15.5696471 C36.2356364,15.8364706 36.4316224,16.0588235 36.7147133,16.0588235 L37.955958,16.0588235 C38.1954965,16.0588235 38.4132587,15.8364706 38.4132587,15.5696471 L38.4132587,10.2554118 C38.4132587,9.72176471 38.3697063,9.09917647 38.3261538,8.87682353 C38.5003636,8.72117647 39.218979,7.67611765 40.7433147,7.67611765 C42.1152168,7.67611765 42.724951,8.67670588 42.724951,10.3221176 L42.724951,15.5696471 C42.724951,15.8364706 42.8991608,16.0588235 43.204028,16.0588235 L44.4234965,16.0588235 C44.7065874,16.0588235 44.9025734,15.8364706 44.9025734,15.5696471 L44.9025734,10.4110588 C44.9025734,7.74282353 44.1404056,5.56376471 41.069958,5.56376471 C39.1536503,5.56376471 37.955958,6.89788235 37.6728671,7.18694118 C36.9324755,6.14188235 36.0614266,5.56376471 34.6024196,5.56376471 C32.6861119,5.56376471 31.6190769,6.74223529 31.4013147,6.98682353 L31.1182238,6.09741176 C31.0528951,5.89729412 30.9222378,5.78611765 30.6826993,5.78611765 L30.1818462,5.78611765 C29.9205315,5.78611765 29.7027692,6.03070588 29.7027692,6.27529412 L29.7027692,15.5696471 C29.7027692,15.8364706 29.9205315,16.0588235 30.1818462,16.0588235 L31.4013147,16.0588235 Z" id="from" fill-rule="nonzero"></path>
                    <g id="Booking.com_logo_BlueOnWhite-Copy-4" transform="translate(52.642811, -0.000000)">
                        <path d="M46.8890465,1.90649474 C46.8890465,0.871697452 47.7011936,0.0334691858 48.7021049,0.0334691858 C49.7061743,0.0334691858 50.5217226,0.871697452 50.5217226,1.90649474 C50.5217226,2.94004318 49.7061743,3.77902076 48.7021049,3.77902076 C47.7011936,3.77902076 46.8890465,2.94004318 46.8890465,1.90649474" id="Fill-1"></path>
                        <path d="M17.0696663,13.5532719 C15.5048922,13.5532719 14.4179803,12.2759479 14.4179803,10.4503786 C14.4179803,8.62555868 15.5048922,7.34823468 17.0696663,7.34823468 C18.643672,7.34823468 19.7439455,8.62555868 19.7439455,10.4503786 C19.7439455,12.305171 18.6665083,13.5532719 17.0696663,13.5532719 Z M17.0696663,4.62149511 C13.759371,4.62149511 11.3569412,7.07323786 11.3569412,10.4503786 C11.3569412,13.8277691 13.759371,16.2800114 17.0696663,16.2800114 C20.3923514,16.2800114 22.8054706,13.8277691 22.8054706,10.4503786 C22.8054706,7.07323786 20.3923514,4.62149511 17.0696663,4.62149511 L17.0696663,4.62149511 Z" id="Fill-2"></path>
                        <path d="M43.3698232,10.7416105 C43.2405793,10.4928395 43.0940868,10.2820336 42.936176,10.1151872 L42.8363278,10.0060377 L42.9412777,9.90138406 C43.0940868,9.73678561 43.2485963,9.54221474 43.398733,9.31542354 L46.3200819,4.85028447 L42.7741353,4.85028447 L40.5782041,8.34306876 C40.4543049,8.53014653 40.2028624,8.62480937 39.8280066,8.62480937 L39.327308,8.62480937 L39.327308,2.02263781 C39.327308,0.702103592 38.5275508,0.521519851 37.6631716,0.521519851 L36.1826976,0.521519851 L36.1846411,16.1081696 L39.327308,16.1081696 L39.327308,11.4324744 L39.6224796,11.4324744 C39.9798438,11.4324744 40.2235122,11.4754349 40.3364792,11.6750011 L42.0698533,15.0391539 C42.5533032,15.9518136 43.036753,16.1081696 43.9443754,16.1081696 L46.3523929,16.1081696 L44.5592556,13.0574783 L43.3698232,10.7416105" id="Fill-3"></path>
                        <path d="M58.6247305,4.5957688 C57.0261879,4.5957688 56.0070562,5.32659595 55.4344475,5.94277864 L55.2451975,6.14234491 L55.1766886,5.87209372 C55.0095461,5.21095242 54.4434968,4.84653792 53.5910217,4.84653792 L52.1829437,4.84653792 L52.1912036,16.1041733 L55.3129777,16.1041733 L55.3129777,10.9154504 C55.3129777,10.4079177 55.3771137,9.96807267 55.5080582,9.56644244 C55.854976,8.35081163 56.8238192,7.59525725 58.0346302,7.59525725 C59.0095469,7.59525725 59.3897474,8.12352089 59.3897474,9.48976303 L59.3897474,14.392749 C59.3897474,15.5586755 59.9140111,16.1041733 61.048782,16.1041733 L62.5346007,16.1041733 L62.5287702,8.94426526 C62.5287702,6.09913469 61.1794835,4.5957688 58.6247305,4.5957688" id="Fill-4"></path>
                        <path d="M48.7429187,4.85153332 L47.2639023,4.85153332 L47.2738628,13.5557696 L47.2726482,13.5557696 L47.2726482,16.1056719 L48.8517557,16.1056719 C48.8711908,16.1056719 48.8877107,16.1091687 48.9071459,16.1091687 L49.6432529,16.1056719 L50.3745012,16.1056719 L50.3745012,16.1016756 L50.3800888,16.1016756 L50.3856764,6.55996042 C50.3856764,5.4095196 49.8499945,4.85153332 48.7429187,4.85153332" id="Fill-5"></path>
                        <path d="M29.329614,13.5532719 C27.7648399,13.5532719 26.6750128,12.2759479 26.6750128,10.4503786 C26.6750128,8.62555868 27.7648399,7.34823468 29.329614,7.34823468 C30.9002186,7.34823468 32.0026786,8.62555868 32.0026786,10.4503786 C32.0026786,12.305171 30.9259702,13.5532719 29.329614,13.5532719 Z M29.329614,4.62149511 C26.0156747,4.62149511 23.6127589,7.07323786 23.6127589,10.4503786 C23.6127589,13.8277691 26.0156747,16.2800114 29.329614,16.2800114 C32.648898,16.2800114 35.0649324,13.8277691 35.0649324,10.4503786 C35.0649324,7.07323786 32.648898,4.62149511 29.329614,4.62149511 L29.329614,4.62149511 Z" id="Fill-6"></path>
                        <path d="M69.1112191,13.0592267 C67.4048112,13.0592267 66.7974622,11.5276368 66.7974622,10.0939568 C66.7974622,9.46203856 66.9524576,7.40268455 68.9462631,7.40268455 C69.9379426,7.40268455 71.2588053,7.69466573 71.2588053,10.1996095 C71.2588053,12.5624341 70.0897798,13.0592267 69.1112191,13.0592267 Z M72.8792125,4.82181069 C72.2866828,4.82181069 71.8304422,5.06383786 71.6025648,5.50767923 L71.5160783,5.67952102 L71.3712863,5.55088945 C70.8674296,5.10230245 69.9649089,4.57104157 68.4982824,4.57104157 C65.5793629,4.57104157 63.6144673,6.82421713 63.6144673,10.1778795 C63.6144673,13.5280451 65.6471431,15.8688899 68.5568309,15.8688899 C69.549968,15.8688899 70.3353918,15.6311089 70.958046,15.1450564 L71.1987992,14.9594772 L71.1987992,15.2721893 C71.1987992,16.7768041 70.2530353,17.6070397 68.5388533,17.6070397 C67.7045987,17.6070397 66.94687,17.3962338 66.4391262,17.2081569 C65.7771158,17.0030957 65.3891412,17.1724398 65.1206929,17.8545618 L64.8728945,18.48648 L64.5228185,19.4063831 L64.7400066,19.5252736 C65.8373648,20.1237226 67.2651209,20.4811436 68.5568309,20.4811436 C71.2143473,20.4811436 74.3181439,19.0824313 74.3181439,15.1450564 L74.3290761,4.82181069 L72.8792125,4.82181069 L72.8792125,4.82181069 Z" id="Fill-7"></path>
                        <path d="M5.44646325,13.4246403 L2.90555781,13.4221426 L2.90555781,10.2985184 C2.90628663,9.63113288 3.15772913,9.28470183 3.71333203,9.20477541 L5.44646325,9.20477541 C6.68375472,9.20477541 7.48229724,10.006787 7.48278312,11.3038429 C7.48229724,12.6348674 6.70318989,13.423891 5.44646325,13.4246403 Z M2.90555781,5.00039627 L2.90628663,5.00039627 L2.90628663,4.17765375 C2.90628663,3.4593151 3.2017012,3.11613106 3.85156467,3.07317062 L5.15226338,3.07317062 C6.26711328,3.07317062 6.9344684,3.75878938 6.9344684,4.90698227 C6.9344684,5.78167697 6.47798487,6.80298667 5.19332017,6.80298667 L2.90555781,6.80298667 L2.90555781,5.00039627 Z M8.69165065,8.11752641 L8.23200889,7.85177109 L8.63261632,7.49909579 C9.09954626,7.08722498 9.88132595,6.16057812 9.88132595,4.55880283 C9.88132595,2.10930802 8.03231253,0.528013872 5.17194149,0.528013872 L1.90731893,0.528013872 L1.90731893,0.527264562 L1.53562131,0.527264562 C0.687762053,0.560234208 0.00874582618,1.26833228 0,2.14627398 L0,16.0512221 L1.49820861,16.0512221 C1.50136683,16.0519714 1.50233859,16.0512221 1.50501092,16.0519714 L5.23680637,16.0512221 C8.41688594,16.0512221 10.4706975,14.2713607 10.4706975,11.5156479 C10.4706975,10.0312645 9.80625761,8.76193313 8.69165065,8.11752641 L8.69165065,8.11752641 Z" id="Fill-8"></path>
                        <path d="M75.5549494,14.3625268 C75.5549494,13.3277295 76.3666107,12.4892515 77.3675219,12.4892515 C78.3715914,12.4892515 79.1873826,13.3277295 79.1873826,14.3625268 C79.1873826,15.3958255 78.3715914,16.2353026 77.3675219,16.2353026 C76.3666107,16.2353026 75.5549494,15.3958255 75.5549494,14.3625268" id="Fill-9"></path>
                        <path d="M96.2293537,13.5532719 C94.6645797,13.5532719 93.5747525,12.2759479 93.5747525,10.4503786 C93.5747525,8.62555868 94.6645797,7.34823468 96.2293537,7.34823468 C97.8006872,7.34823468 98.9029042,8.62555868 98.9029042,10.4503786 C98.9029042,12.305171 97.8257099,13.5532719 96.2293537,13.5532719 Z M96.2293537,4.62149511 C92.9159003,4.62149511 90.5134704,7.07323786 90.5134704,10.4503786 C90.5134704,13.8277691 92.9159003,16.2800114 96.2293537,16.2800114 C99.5491236,16.2800114 101.965158,13.8277691 101.965158,10.4503786 C101.965158,7.07323786 99.5491236,4.62149511 96.2293537,4.62149511 L96.2293537,4.62149511 Z" id="Fill-10"></path>
                        <path d="M115.906734,4.632485 C114.612837,4.632485 113.359998,5.25641057 112.556839,6.30119866 L112.33042,6.59667662 L112.153074,6.26648062 C111.574878,5.18247863 110.580283,4.632485 109.196013,4.632485 C107.745177,4.632485 106.77269,5.46446901 106.321308,5.96001278 L106.025165,6.28796084 L105.911469,5.85485959 C105.746513,5.23168333 105.206458,4.88849929 104.387509,4.88849929 L103.076364,4.88849929 L103.063488,16.1016756 L106.044114,16.1016756 L106.044114,11.1522324 C106.044114,10.7183819 106.096589,10.2892769 106.202754,9.84068994 C106.487965,8.64429144 107.26853,7.35822548 108.583319,7.48660728 C109.394009,7.56703324 109.79,8.21069064 109.79,9.45479523 L109.79,16.1016756 L112.791519,16.1016756 L112.791519,11.1522324 C112.791519,10.6097319 112.84035,10.2046049 112.959147,9.79747973 C113.201358,8.65603063 114.017392,7.48535843 115.28578,7.48535843 C116.202877,7.48535843 116.543479,8.01936679 116.543479,9.45479523 L116.543479,14.4626846 C116.543479,15.5961411 117.03446,16.1016756 118.135219,16.1016756 L119.538438,16.1016756 L119.541596,8.94351595 C119.541596,6.08289964 118.317424,4.632485 115.906734,4.632485" id="Fill-11"></path>
                        <path d="M88.7885992,12.2090095 C88.7791245,12.2197496 87.4961604,13.6094701 85.807973,13.6094701 C84.2684647,13.6094701 82.7146229,12.6398628 82.7146229,10.473857 C82.7146229,8.6020803 83.9198463,7.29428435 85.6447176,7.29428435 C86.2054222,7.29428435 86.841924,7.50159349 86.9420151,7.84827431 L86.9561056,7.90697027 C87.1856836,8.69449521 87.8809768,8.7354575 88.0187235,8.7354575 L89.6517636,8.7379552 L89.6517636,7.27005666 C89.6517636,5.33458859 87.2568649,4.632485 85.6447176,4.632485 C82.1983762,4.632485 79.6973128,7.09896418 79.6973128,10.4968358 C79.6973128,13.8929591 82.1714099,16.3564411 85.5813103,16.3564411 C88.5400719,16.3564411 90.149061,14.3570319 90.1648521,14.3365507 L90.2506098,14.2284003 L88.9579281,12.0219317 L88.7885992,12.2090095" id="Fill-12"></path>
                    </g>
                </g>
            </g>
        </g>
    </g>
</svg>