<svg width="343" height="98" viewBox="0 0 343 98" xmlns="http://www.w3.org/2000/svg"><g fill="none" fill-rule="evenodd"><path d="M0 38.5c0-5.26 4.258-9.525 9.51-9.525 5.251 0 9.51 4.265 9.51 9.524 0 5.261-4.259 9.526-9.51 9.526-5.252 0-9.51-4.265-9.51-9.526zm66.8 9.525c-5.252 0-9.509-4.265-9.509-9.526 0-5.26 4.257-9.524 9.51-9.524 5.251 0 9.51 4.265 9.51 9.524 0 5.261-4.259 9.526-9.51 9.526zM66.803.4c-21.01 0-38.041 17.058-38.041 38.098 0 21.043 17.031 38.1 38.04 38.1 21.011 0 38.042-17.057 38.042-38.1C104.844 17.458 87.813.4 66.803.4z" fill="#DA3743"/><path d="M338.684 35.552c.6 0 .957-.27.957-.76 0-.444-.245-.735-.913-.735h-.623v1.495h.58zm-1.492-2.251h1.69c.936 0 1.737.378 1.737 1.448 0 .533-.334 1.048-.823 1.224l1.024 1.852h-1.024l-.78-1.56h-.911v1.56h-.913V33.3zm4.917 2.316c0-2.093-1.447-3.587-3.313-3.587-1.87 0-3.295 1.494-3.295 3.587 0 2.118 1.424 3.566 3.295 3.566 1.866 0 3.313-1.448 3.313-3.566zm-7.499 0c0-2.607 1.891-4.39 4.186-4.39 2.313 0 4.204 1.783 4.204 4.39 0 2.608-1.891 4.39-4.204 4.39-2.295 0-4.186-1.782-4.186-4.39zM306.694 53.44a1.05 1.05 0 001.04-1.035V48.58c0-.565-.47-1.035-1.033-1.035h-.167c-.467 0-.933-.465-.933-.932v-22.66c0-.517-.516-1.034-1.032-1.034h-3.804c-.516 0-1.032.517-1.032 1.034v25.102l.015.654c0 1.869 1.866 3.736 3.73 3.736l3.216-.005zm-167.36-24.535c5.172 0 9.538 4.389 9.538 9.593 0 5.25-4.28 9.514-9.539 9.514-5.234 0-9.491-4.264-9.491-9.514 0-5.29 4.257-9.593 9.491-9.593zm0-6.042c-8.561 0-15.525 7.014-15.525 15.635 0 8.722 6.815 15.556 15.524 15.556 8.733 0 15.572-6.834 15.572-15.556 0-8.621-6.988-15.635-15.572-15.635zm123.885 24.38c-.281.8-1.972 2.305-3.897 2.305-2.018 0-3.145-1.223-3.145-3.057 0-1.927 1.362-3.103 3.85-3.103 1.736 0 3.192.658 3.192.658v3.198zm-2.535-16.034c-3.521 0-6.949.894-7.419 1.082-.468.14-.892.517-.703 1.316l.47 2.446c.093.658.516 1.175 1.22.94 1.268-.376 4.131-.8 6.103-.8 2.3 0 3.099 1.317 3.005 4.092 0 0-1.972-.612-4.179-.612-5.492 0-8.638 2.963-8.638 6.818 0 4.655 3.005 7.43 7.324 7.43 3.38 0 5.54-1.505 6.808-2.727v1.167c0 .564.47 1.034 1.033 1.034h.383c.04.009.086.009.133.009h1.596c.564 0 1.033-.47 1.033-1.035V40.66c0-5.925-1.408-9.452-8.169-9.452zm-39.415 0c-4.155 0-6.174 2.234-6.98 3.135v-1.63c0-.564-.47-1.035-1.033-1.035H210.8c-.517 0-1.033.424-1.033 1.035v19.655c0 .564.516 1.035 1.033 1.035h3.474c1.033 0 1.362-.236 1.362-1.035V39.955c.516-1.505 1.877-3.386 4.694-3.386 2.63 0 3.756 1.74 3.756 4.562v11.238c0 .564.47 1.035 1.033 1.035h3.803c.517 0 1.033-.47 1.033-1.035V41.13c0-5.267-1.784-9.922-8.686-9.922zm-51.692 17.352c-2.723 0-4.507-1.224-4.507-1.224V39.58c.47-1.223 1.972-3.01 4.79-3.01 3.38 0 5.116 2.963 5.116 6.02 0 3.056-1.83 5.972-5.399 5.972zm1.08-17.352c-4.46 0-6.933 3.049-7.081 3.236v-1.731c0-.564-.47-1.035-1.033-1.035h-2.308c-.564 0-1.033.47-1.033 1.035v28.495c0 .517.47 1.034 1.033 1.034h3.802c.517 0 1.033-.517 1.033-1.034v-8.182c.986.377 3.052.894 5.212.894 6.48 0 10.751-4.984 10.751-11.333 0-6.582-4.46-11.379-10.375-11.379zm154.83 8.603c-.093-2.115-1.782-3.76-4.178-3.76-2.628 0-4.318 1.598-4.6 3.76h8.779zm-4.036-8.604c5.633 0 9.953 4.186 9.953 10.062 0 .33-.048 1.082-.094 1.411-.047.565-.563.988-1.033.988H316.38c.047 2.68 2.253 5.03 5.4 5.03 2.159 0 3.661-.799 4.647-1.597.517-.425 1.08-.471 1.409 0l1.83 2.443c.376.424.423.941-.093 1.411-1.878 1.599-4.554 2.963-8.075 2.963-6.479 0-10.986-5.172-10.986-11.379 0-6.113 4.507-11.332 10.94-11.332zm-36.744 17.353c-2.817 0-4.32-1.788-4.79-3.01v-7.758s1.785-1.224 4.508-1.224c3.568 0 5.4 2.916 5.4 5.973 0 3.056-1.738 6.019-5.118 6.019zm.516-17.352c-2.16 0-4.319.517-5.305.94v-8.275c0-.517-.47-1.035-1.033-1.035h-3.803c-.517 0-1.033.518-1.033 1.035v28.495c0 .564.516 1.035 1.033 1.035h1.643c.031 0 .063 0 .094-.009h.439c.57 0 1.04-.47 1.04-1.034v-1.607l.023-.078s2.489 3.245 7.23 3.245c5.916 0 10.189-5.173 10.189-11.38 0-6.348-4.085-11.332-10.517-11.332zm-33.217-8.37h-22.083a.893.893 0 00-.892.894v3.855c0 .47.376.894.892.894h7.966V52.51c0 .47.422.894.892.894h4.367c.469 0 .892-.424.892-.894V28.482h7.966a.893.893 0 00.892-.894v-3.855a.893.893 0 00-.892-.894zm-52.57 16.973c-.094-2.115-1.783-3.76-4.178-3.76-2.628 0-4.32 1.598-4.6 3.76h8.779zm-4.037-8.604c5.634 0 9.953 4.186 9.953 10.062 0 .33-.046 1.082-.093 1.411-.048.565-.564.988-1.034.988H190.33c.047 2.68 2.253 5.03 5.399 5.03 2.16 0 3.662-.799 4.648-1.597.516-.425 1.08-.471 1.408 0l1.831 2.443c.376.424.423.941-.094 1.411-1.878 1.599-4.554 2.963-8.075 2.963-6.479 0-10.986-5.172-10.986-11.379 0-6.113 4.507-11.332 10.94-11.332z" fill="#141A26"/><g fill="#141A26"><path d="M162.484 93.059c.24 0 .48-.223.48-.49v-7.715h2.852c.261 0 .479-.245.479-.49v-1.089a.475.475 0 00-.479-.489h-2.853v-1.178c0-1.29.458-2.224 1.59-2.224.653 0 1.067.156 1.611.512.262.177.501.155.654-.09l.631-.933c.11-.156.087-.423-.087-.578-.457-.423-1.502-1.023-2.853-1.023-2.439 0-3.723 1.578-3.723 4.336v1.178h-1.307c-.283 0-.479.2-.479.49v1.089c0 .244.196.489.48.489h1.306v7.716c0 .266.24.489.479.489h1.22zm7.252 0c.413 0 .697-.045.697-.49v-6.514c.087-.178.892-1.379 2.373-1.379.305 0 .762.111.915.2.217.111.479.045.61-.244l.522-1.112c.327-.69-.871-.956-1.83-.956-1.828 0-2.874 1.245-3.048 1.512l-.283-.934a.466.466 0 00-.435-.356h-.523c-.261 0-.48.245-.48.49v9.294a.49.49 0 00.48.489h1.002zm11.432.244c2.81 0 5.118-2.468 5.118-5.403 0-2.89-2.309-5.336-5.118-5.336-2.83 0-5.139 2.446-5.139 5.336 0 2.935 2.308 5.403 5.14 5.403zm0-2.112c-1.698 0-3.005-1.4-3.005-3.29 0-1.846 1.307-3.225 3.005-3.225 1.677 0 2.984 1.379 2.984 3.224 0 1.89-1.307 3.291-2.984 3.291zm9.233 1.868c.24 0 .48-.223.48-.49v-6.403c.108-.356.87-1.49 2.373-1.49 1.394 0 1.982.978 1.982 2.646v5.248c0 .266.196.489.479.489h1.241c.24 0 .457-.223.457-.49v-5.314c0-.533-.043-1.156-.087-1.378.174-.156.893-1.2 2.417-1.2 1.372 0 1.982 1 1.982 2.645v5.248c0 .266.174.489.479.489h1.22a.475.475 0 00.479-.49v-5.158c0-2.668-.763-4.847-3.833-4.847-1.916 0-3.114 1.334-3.397 1.623-.74-1.045-1.612-1.623-3.07-1.623a4.251 4.251 0 00-3.202 1.423l-.283-.89c-.065-.2-.196-.31-.435-.31h-.501c-.261 0-.48.244-.48.488v9.295a.49.49 0 00.48.489h1.22z" fill-rule="nonzero"/><path d="M258.532 78.906c0-1.034.812-1.873 1.813-1.873 1.004 0 1.82.839 1.82 1.873s-.816 1.873-1.82 1.873c-1.001 0-1.813-.839-1.813-1.873m-29.82 11.647c-1.564 0-2.651-1.277-2.651-3.103 0-1.824 1.087-3.102 2.651-3.102 1.574 0 2.675 1.278 2.675 3.102 0 1.855-1.078 3.103-2.675 3.103zm0-8.932c-3.31 0-5.712 2.452-5.712 5.83 0 3.377 2.402 5.829 5.712 5.829 3.323 0 5.736-2.452 5.736-5.83 0-3.377-2.413-5.829-5.736-5.829zm26.301 6.121a2.762 2.762 0 00-.434-.627l-.1-.109.105-.105a4.56 4.56 0 00.458-.586l2.92-4.465h-3.545l-2.196 3.493c-.124.187-.375.282-.75.282h-.5v-6.602c0-1.32-.8-1.501-1.665-1.501h-1.48l.001 15.586h3.143v-4.676h.295c.358 0 .601.043.714.243l1.734 3.364c.483.913.967 1.07 1.874 1.07h2.408l-1.793-3.052-1.19-2.315m15.256-6.146c-1.599 0-2.618.73-3.19 1.347l-.19.2-.069-.27c-.167-.662-.733-1.026-1.585-1.026h-1.408l.008 11.257h3.122v-5.189c0-.507.064-.947.195-1.349.347-1.215 1.316-1.97 2.526-1.97.975 0 1.356.528 1.356 1.894v4.903c0 1.166.524 1.711 1.659 1.711h1.485l-.005-7.16c0-2.845-1.35-4.348-3.904-4.348m-9.882.256h-1.48l.01 8.704v2.55h1.579c.019 0 .036.003.055.003l.736-.003h.731v-.004h.006l.005-9.542c0-1.15-.535-1.708-1.642-1.708m-19.414 8.701c-1.564 0-2.654-1.277-2.654-3.103 0-1.824 1.09-3.102 2.654-3.102 1.571 0 2.673 1.278 2.673 3.102 0 1.855-1.076 3.103-2.673 3.103zm0-8.932c-3.314 0-5.716 2.452-5.716 5.83 0 3.377 2.402 5.829 5.716 5.829 3.32 0 5.736-2.452 5.736-5.83 0-3.377-2.416-5.829-5.736-5.829zm39.782 8.439c-1.706 0-2.314-1.532-2.314-2.966 0-.632.155-2.691 2.15-2.691.99 0 2.312.292 2.312 2.797 0 2.362-1.17 2.86-2.148 2.86zm3.768-8.238c-.593 0-1.049.242-1.277.686l-.086.172-.145-.13c-.504-.448-1.406-.979-2.873-.979-2.919 0-4.884 2.253-4.884 5.607 0 3.35 2.033 5.69 4.943 5.69.993 0 1.778-.237 2.4-.723l.242-.186v.313c0 1.505-.946 2.335-2.66 2.335-.835 0-1.592-.21-2.1-.399-.662-.205-1.05-.036-1.318.647l-.248.631-.35.92.217.12c1.097.598 2.525.955 3.817.955 2.657 0 5.761-1.399 5.761-5.336l.01-10.323h-1.449zm-67.432 8.603l-2.542-.003V87.3c.001-.668.253-1.014.808-1.094h1.733c1.238 0 2.036.802 2.037 2.099 0 1.33-.78 2.12-2.037 2.12zM214.547 82h.001v-.822c0-.719.296-1.062.945-1.105h1.301c1.115 0 1.782.686 1.782 1.834 0 .875-.456 1.896-1.74 1.896h-2.289V82zm5.786 3.118l-.46-.266.401-.353c.467-.412 1.25-1.338 1.25-2.94 0-2.45-1.85-4.031-4.71-4.031h-3.637c-.847.032-1.526.74-1.535 1.618v13.905h1.498l.007.001h3.732c3.18 0 5.234-1.78 5.234-4.536 0-1.485-.665-2.754-1.78-3.398zm66.865 6.245c0-1.035.811-1.874 1.812-1.874 1.004 0 1.82.839 1.82 1.874 0 1.033-.816 1.872-1.82 1.872-1 0-1.812-.84-1.812-1.872m20.674-.81c-1.565 0-2.654-1.277-2.654-3.103 0-1.824 1.09-3.102 2.654-3.102 1.571 0 2.674 1.278 2.674 3.102 0 1.855-1.077 3.103-2.674 3.103zm0-8.932c-3.313 0-5.716 2.452-5.716 5.83 0 3.377 2.403 5.829 5.716 5.829 3.32 0 5.736-2.452 5.736-5.83 0-3.377-2.416-5.829-5.736-5.829zm19.678.011a4.262 4.262 0 00-3.35 1.67l-.227.295-.177-.33c-.578-1.085-1.573-1.635-2.957-1.635-1.451 0-2.423.832-2.875 1.328l-.296.328-.114-.433c-.165-.623-.705-.967-1.524-.967h-1.31l-.014 11.214h2.98v-4.95c0-.434.053-.863.16-1.311.285-1.197 1.065-2.483 2.38-2.354.81.08 1.207.724 1.207 1.968v6.647h3.001v-4.95c0-.542.05-.947.168-1.355.242-1.141 1.058-2.312 2.327-2.312.917 0 1.257.534 1.257 1.97v5.008c0 1.133.491 1.639 1.592 1.639h1.403l.003-7.158c0-2.861-1.224-4.312-3.634-4.312m-27.119 7.577c-.01.01-1.292 1.4-2.98 1.4-1.54 0-3.094-.97-3.094-3.135 0-1.872 1.206-3.18 2.93-3.18.561 0 1.198.208 1.298.554l.014.059c.23.787.925.828 1.063.828l1.633.003V84.27c0-1.935-2.395-2.638-4.007-2.638-3.447 0-5.948 2.467-5.948 5.865 0 3.396 2.474 5.86 5.884 5.86 2.959 0 4.568-2 4.584-2.02l.085-.109-1.292-2.206-.17.187"/></g></g></svg>