<svg xmlns="http://www.w3.org/2000/svg" viewBox="0 0 320 320"><style>.st3{fill:#C95229}.st4{fill:#431129}.st6{fill:#F9BD57}.st7{fill:#F5AA1C}@keyframes spin{0%{transform-origin:89% 53% 0;transform:scale(0.6) rotate(0deg);opacity:0.6}50%{transform-origin:89% 53% 0;transform:scale(1) rotate(180deg);opacity:1}100%{transform-origin:89% 53% 0;transform:scale(0.6) rotate(360deg);opacity:0.6}}@keyframes spin2{0%{transform-origin:25% 14% 0;transform:scale(0.8) rotate(0deg);opacity:0.5}50%{transform-origin:25% 14% 0;transform:scale(1) rotate(180deg);opacity:1}100%{transform-origin:25% 14% 0;transform:scale(0.8) rotate(360deg);opacity:0.5}}@keyframes float{0%{transform-origin:25% 14% 0;transform:scale(1.01) rotate(-4deg) translate(-1px, -8px)}50%{transform-origin:25% 14% 0;transform:scale(1) rotate(-2deg) translate(0px, 0px)}100%{transform-origin:25% 14% 0;transform:scale(1.01) rotate(-4deg) translate(-1px, -8px)}}@keyframes float2{0%{transform-origin:89% 53% 0;transform:scale(1) rotate(1deg) translate(-1px, -3px)}50%{transform-origin:89% 53% 0;transform:scale(1.02) rotate(0deg) translate(0px, -10px)}100%{transform-origin:89% 53% 0;transform:scale(1) rotate(1deg) translate(-1px, -3px)}}</style><circle cx="160" cy="160" r="160" fill="#CEA7CE" opacity=".25"/><path d="M209.6 45.1c5.4 1.3 6 7.7 3.1 13.4 5.7 4.4 4.4 17.1-5.7 18.5 4.3-1.4 10 7.1 2.9 11.4 1.4 7.1-4.9 14.9-11.4 14.2 1.4 2.8-1.4 10-7.1 8.5 0 4.3-1.4 7.1-10 7.1-4.3 4.3-10 2.8-17.1-2.8-1.4 8.5-11.4 11.4-15.6 1.4-5.7 7.1-11.4-1.4-11.4-1.4-7.1 5.7-11.4-1.4-11.4-7.1-5.7 5.7-13.2-1.8-8.5-7.1-4.3 1.4-10-5.7-5.7-10-5.7 1.4-12.8-5.7-8.5-11.4-5.2.2-8.4-8.5-1.4-11.4-7.1-7.1 2.8-14.2 2.8-14.2-5.6-5 0-11.4 5.7-10-1.4-7.1 6.2-15 11.9-13.6.2-9 9.3-14.4 18.8-6.7 2.7-10.3 17.6-15.3 26.2-3.9 5.7-4.3 11.4-2.8 14.2 1.4 4.3-2.8 14.2 0 11.4 8.5 4.3-2.9 13.4-.6 11.4 7.1 4.9-1.5 8.1 5.8 5.4 8.1zM51.7 181.3c-5.2-3.2 12.8-57.6 20.3-55.4 5.4 4.4-12.6 55.2-20.3 55.4zm10.4 105.3s18.3-35.8 45-42.8c0 0 17.1 19.9 17.3 19.5-28.1 6.8-11.9 49.3-11.9 49.3s-29.6-6.7-29.8-32.1L72.5 294l-10.4-7.4zm141 27S183 286 191 260c0 0 22.3-.4 33 3-1.1 11.7 15.1 25.3 29 26-5.3 3.5-28.8 24.6-42.9 4.7 0 5.8 3.1 16.6 3.1 16.6l-10.1 3.3z" fill="#7F2F8A"/><path class="st3" d="M43.3 128.3c-8.8-.6-17.7-14.3-23-6.8 1.2.9 7.7 3.6 8.5 5-1.5-.4-6.1-3-7.4-3.1-6.5-.6-6.8 2.7-6.8 2.7s12.1 4.2 17.7 9.3c8.9 8.1 18 4.5 21.4 4.2 16.2-1.8 23.7 9.9 23.7 9.9l12.5-6.6s-23.2-20.8-35.4-18.6c-4.9.9-10 .3-14.5-1.8-4.8-2.4-6.4-.1-6.4-.1s5.2 4.5 9.7 5.9zm218 0c8.8-.6 17.7-14.3 23-6.8-1.2.9-7.7 3.6-8.5 5 1.5-.4 6.1-3 7.4-3.1 6.5-.6 6.8 2.7 6.8 2.7s-12.1 4.2-17.7 9.3c-8.9 8.1-18 4.5-21.4 4.2-16.2-1.8-23.7 9.9-23.7 9.9l-15-13.5s25.8-13.9 38-11.8c4.9.9 10 .3 14.5-1.8 4.8-2.4 6.4-.1 6.4-.1s-5.2 4.6-9.8 6zm-122.9-14.7c-1.1-7.5 4.8-24.4 10.9-33.1C147 76 147.9 67.7 153 66c3.2-1.1 2.1 4.8 5.9 3.8 4.9-1.3 10.5-13.1 19.1-13.8 13.9-1.1 16.1 33 .1 39.4s-5.4 22.5-5.4 22.5-3.2 45-20.3 39.6-14-43.9-14-43.9z"/><path class="st4" d="M71.9 125.8c8.4 4.7 16.4 10.2 23.8 16.3 0 0 .8-12.1 11.3-25.2 13.3-16.7 34.8-21.4 34.8-21.4s3.2 37.8 15 48.5c10.8-14.5 10.3-30.1 12.9-39.5 0 0 6 4.8 17.9 8.1 16.3 4.5 24.5 23.3 24.5 23.3s13.7-8.7 26.5-10.7c2.2 3.4 10.5 25.4 7.4 44.2 0 0-15-7.5-40.7 3.6-17.7 7.6-94.8 66.1-153.7 8.3 9.6-3.7 24.3-48.5 20.3-55.5zm107.9-39.9c-.3-.7-2.3-.5-3.1-.2s-.5-.4-1.8-.7c-1-.2-3.4.7-6-.1.1.9.4 1.8 1 2.5 1.5 2 5.8 3.3 7.6 1.7.9-.8.8-1.8 1.4-2.3s1-.5.9-.9z"/><path d="M104.1 205.7c25.2 2.3 32.7-3 68.9-38.3 0 0 64.1-25.9 80.1-2.4 25.3 37.3-27.6 84.8-29 98-7.6 2.6-32-3-32-3s-3.1-15.2 7.9-39.2c0 0-17.1 6.5-25.4 4.6 0 0 53.9 61.3 19.5 88.6-20.6 16.4-67.8-18.4-82-35.4-9.8-11.7-34.6-43.5-8-72.9z" fill="#A86FAC"/><polygon class="st6" points="286.6,166.9 293,170.4 286.6,173.9 283.1,180.4 279.5,173.9 273.1,170.4 279.5,166.9 283.1,160.4" style="animation:spin 5s linear infinite"/><polygon class="st6" points="82.6,44.9 85.4,46.4 82.6,48 81,50.8 79.5,48 76.7,46.4 79.5,44.9 81,42.1" style="animation:spin2 4s linear infinite"/><g style="animation:float2 3s ease-in-out infinite"><path class="st7" d="M243.7 108.8c1.7 2.2 10.5 6.1 28.9 2.1 19-4.2 26.5-12.7 27.3-16.8.6-2.9-2.5-10.4-2.5-10.4l-57.3 17.4c.2 0 2.3 6 3.6 7.7z"/><path class="st3" d="M242.4 96.8c-5.7 1.4-7.5 7.5-.5 10.5 13.4 5.8 45.5-1.7 57.9-15.1 4-4.3 1.5-12-6.9-8.3-7.4 3.2-35.2 9-50.5 12.9z"/><path class="st4" d="M238.3 90.5c-7.3 12.3 5.8 15.8 14.8 12 17.4-7.4 25.4 5.5 36 0 9.1-4.7 5.4-13.3 9.6-16 4.7-3 5.2-10.2-2.2-13.3"/><path class="st7" d="M262.7 63.2c-22.3 6.2-29.3 20.3-25.8 29 6.8 16.7 63.1 2 61.6-14.6-.7-8-11.2-21.3-35.8-14.4z"/><path d="M250.8 91.6c.1.4-.2.9-.6 1-.4.1-.9-.2-1-.6 0-.6.2-1.1.4-1.6 0 0 1.1.8 1.2 1.2zm-7.6-6.7c.4.1.7.5.7 1-.1.4-.5.7-1 .7h-.1c-.4-.1-1.2-1.2-1.2-1.2.5-.3 1-.5 1.6-.5zm12.8-1.6c.1.4-.2.9-.7.9-.4.1-.9-.2-.9-.7.1-.6.3-1.1.6-1.6 0 .1.9.9 1 1.4zm5.3 7.3c.1.4-.1.9-.5 1-.4.1-.9-.1-1-.5 0-.6.1-1.1.4-1.6-.1-.1.9.6 1.1 1.1zm2.3-14.2c-.2.4-.6.6-1.1.5-.4-.1-.6-.6-.5-1 .1-.4 1.2-1.1 1.2-1.1.3.5.4 1 .4 1.6zm13.7-.3c.3.3.4.8.1 1.1-.3.3-.8.4-1.1.1-.3-.5-.5-1-.6-1.6.5.1 1.1.2 1.6.4zm6.9 5c0 .4-.4.8-.8.8s-.8-.4-.8-.8.9-1.4.9-1.4.8 1 .7 1.4zm1.9-7.9c-.2.4-.7.6-1.1.4-.3-.2-.5-.6-.4-.9.2-.4 1.3-1.1 1.3-1.1.1.5.2 1 .2 1.6zm-6.2-5.4c-.1.4-.6.7-1 .5s-.7-.6-.5-1c.1-.4 1.2-1.1 1.2-1.1.2.5.3 1 .3 1.6zm-8.5 3.4c.1.4-.1.9-.5 1s-.9-.1-1-.5c0-.6.1-1.1.3-1.6 0 0 1.1.7 1.2 1.1zm1.7-5.8c.1.4-.1.9-.5 1-.4.1-.9-.1-1-.5 0-.6.1-1.1.3-1.6-.1 0 1 .7 1.2 1.1zM254 73c.3.4.2.9-.1 1.1-.3.3-.8.2-1.1-.1-.2-.5-.3-1.1-.2-1.6.4.1.9.3 1.4.6zm15.3 8.6c.3.4.2.9-.1 1.1-.3.3-.8.2-1.1-.1-.2-.5-.3-1.1-.2-1.6.4.1.9.3 1.4.6z" fill="#FFF"/></g><g style="animation:float 3s ease-in-out infinite"><path d="M15.4 76.8S12 83 13 93c.4 3.6 3.2 9.8 14.4 12.3 12 2.7 20 .9 28.4 4.5 10.1 4.4 17.5 9.9 23.4 3.9 2.4-2.5 5.1-10.7 5.1-10.7" fill="#83361D"/><path d="M42 65.2c21.6 5.3 46.6 26.8 41.7 38.3-4.5 10.3-17.9-4.6-30.4-4.7-20.7-.3-35.3-3.2-37.9-16.7C12.9 69.7 25.9 61.3 42 65.2z" fill="#C95328" stroke="#FFF" stroke-width="2" stroke-miterlimit="10"/><path d="M27.3 83.9c1.2 3.5 12-1.8 15.7-.8 4 1.1 26 14.6 27.8 11.5s-23.5-13.4-22.9-15 2.8-1.1 1.4-2.9c-2.8-3.6-23.3 3.1-22 7.2z" opacity=".24" fill="#FFF"/></g></svg>