<svg xmlns="http://www.w3.org/2000/svg" viewBox="0 0 85.4 20"><path d="M41.9 12.6c.4-.1.8-.2 1.3-.2.1.5.4 1.1 1.4 1.1.2 0 1.3-.1 1.3-.8 0-1.5-3.8 0-3.8-2.6 0-1.1 1.1-1.9 2.4-1.9s2.3.4 2.5 1.8c-.4.1-.8.2-1.3.2-.1-.7-.5-1.1-1.3-1.1-.6 0-1.1.3-1.1.7 0 .5.4.6 1.2.7 1.4.1 2.6.4 2.6 1.9 0 1.3-1.2 2-2.6 2-1.6.1-2.4-.7-2.6-1.8m5.7-3.4v-1h1.1V6.4H50v1.8h1.3v1.1H50v3.5c0 .5.1.6.5.6h.6v1.1h-.9c-1.2 0-1.6-.6-1.6-1.8V9.2h-1zm8.3 1.7c0-.9-.2-1.8-1.2-1.8s-1.2.8-1.2 1.8v3.5h-1.4V8.2h1.2l.1.6c.3-.3 1-.8 1.8-.8s1.4.3 1.7.9c.3-.5 1.1-.9 1.8-.9 1.7 0 2.2 1.1 2.2 2.8v3.5h-1.3v-3.5c0-.9-.2-1.8-1.2-1.8-.9 0-1.2.8-1.2 1.8v3.5H56l-.1-3.4zM32.4 5.8h-3.6v8.6h1.4V11h2.2c1.6 0 2.5-1.2 2.5-2.6s-1-2.6-2.5-2.6zm-.1 4.1h-2.2v-3h2.2c.6 0 1.3.7 1.3 1.5s-.6 1.5-1.3 1.5zm35 2.9v-2.2c0-1.7-.9-2.5-2.6-2.5-1.3 0-2.4.6-2.5 2 .4.1.8.2 1.3.2 0-.7.5-1.2 1.3-1.2 1.2 0 1.4.6 1.4 1.2v.4h-1.6c-1.7 0-2.5.8-2.5 1.9 0 1.2.8 2 2.3 2 .7 0 1.5-.3 1.9-.9.1.5.5.9 1.1.8.3 0 .5 0 .7-.1v-1.1h-.3c-.5 0-.5-.2-.5-.5zm-3.1.7c-.8 0-1.1-.4-1.1-.8 0-.3.2-.8 1.3-.8h1.5v.3c0 .5-.6 1.3-1.7 1.3zm-26-5.4c-1.8 0-3.3 1.5-3.3 3.3s1.5 3.3 3.3 3.3c1.8 0 3.3-1.5 3.3-3.3-.2-1.8-1.5-3.3-3.3-3.3zm2 3.2c0 1.2-.9 2-2 2-1.2 0-2-.9-2-2s.9-2 2-2c1 0 2 .9 2 2zm35.9 1c-.2.7-.8 1.2-1.6 1.2-.9 0-1.5-.8-1.6-1.7h4.3v-.6c0-1.9-1.1-3.1-2.8-3.1-1.7 0-2.8 1.3-2.8 3.3 0 1.9 1.3 3.3 3 3.3s2.5-1.1 2.8-1.9c-.4-.3-.9-.4-1.3-.5zm-1.7-3.2c.9 0 1.4.6 1.4 1.5H73c.1-.7.6-1.5 1.4-1.5zm3.5 3.5c.4-.1.8-.2 1.3-.2.1.5.4 1.1 1.4 1.1.2 0 1.3-.1 1.3-.8 0-1.5-3.8 0-3.8-2.6 0-1.1 1.1-1.9 2.4-1.9s2.4.5 2.6 1.9c-.4.1-.8.2-1.3.2-.1-.7-.5-1.1-1.3-1.1-.6 0-1.1.3-1.1.7 0 .5.4.6 1.2.7 1.4.1 2.6.4 2.6 1.9 0 1.3-1.2 2-2.6 2-1.6 0-2.6-.8-2.7-1.9M67.7 9.2v-1h1.1V6.4h1.4v1.8h1.3v1.1h-1.3v3.5c0 .5.1.6.5.6h.6v1.1h-.9c-1.2 0-1.6-.6-1.6-1.8V9.2h-1.1zm-44.8-.6a3 3 0 00-4-.9c-.2.2-.5.3-.6.6l-1-.8c.3-.1.8-.3.8-.5 0-.1-.3-.1-.7-.2L19.3 5l-.5-.9h-.1l-2 1.8c-.6 0-1.7.1-2-.1-.5-.3-.5-.8-.7-.9-.2-.2-.4-.2-.4-.3.1 0 .6-.2.7-.5.1-.4-.1-.9-.2-.9l.6-.5-.7-.1c0-.1-.4-.4-1-.2-.8.3-.6 1-.6 1 .1.7.3.8.7 1.1-.3.2-2.8 2.3-5.2 3.1v.1c.7.3 2.7.1 3.3-.2-.1.3-.4 1.7.1 2.2l-.8.5c-.1.1-.1.2 0 .3 0 .1.1.1.2.1h.4c.3 0 .5-.1.7-.3l.1-.1 1.1.8-.1 1.2c-1.6-.1-2.9 1.1-3 2.7s1.1 2.9 2.7 3c1.6.1 2.9-1.1 3-2.7 0-.5-.1-1.1-.3-1.5l.3-.2c.3.3.7.2 1-.1.2-.2.2-.4.1-.6l1.2-.3c.1 0 .2-.1.1-.2 0-.1-.1-.2-.2-.1h-1l-.3-.7.6-3.5 1 .7c-.9 1.3-.5 3.1.9 4 1.3.9 3.1.5 4-.9.5-1.1.5-2.3-.1-3.2zM15 6.5h1.4l.2.3c-.3 0-.6 0-1 .1-.3 0-.6-.3-.6-.4zm-2.1 2c.1-.2.8-1.3.9-1.7.4.5 1.4.8 1.4.8l1.2-.4.3.2-1.2 1.1c-.1-.1-.3-.2-.5-.2-.7 0-1.9.2-2.1.2zm3.1 3.7c-.1 0-.2 0-.2.1l-.8-.7.4-.9.7 1.1-.1.4zm-1.8-.9l-.6-.4 1.1-1-.5 1.4zm0-1.5l-.9.8-.9-.6c.6 0 1.2-.1 1.8-.2zm-.7 1.4l.6.4-.1.3c-.1.1 0 .3.2.3l1.2.5c-.1.1-.1.3 0 .4l-.3.2c-.4-.6-1.1-1-1.8-1.1l.2-1zm-.2 1.6c.5.1 1 .4 1.4.9l-1.6 1 .2-1.9zm.7 4.1c-1.1.7-2.5.4-3.1-.7-.7-1.1-.4-2.5.7-3.1.4-.3.9-.4 1.3-.4l-.3 2.3c0 .1.1.2.2.2h.1l1.9-1.2c.6 1 .2 2.3-.8 2.9zm1.7-7.4c0-.2 0-.3-.1-.5l1-1-.5 2.7-.4-1.2zm6 2.5c-1.1.7-2.5.4-3.1-.7-.5-.7-.5-1.7 0-2.4l1.8 1.3h.3c.1-.1 0-.2 0-.3l-1.8-1.3c.8-.9 2.3-1 3.2-.2.9.8 1 2.3.2 3.2-.3.2-.4.3-.6.4z"/><path d="M15.9 5.4h.8l1.6-1.5h-.7l-1.7 1.5z"/><polygon points="7.2,15.1 6.2,15.7 5.2,14.9 5.5,16.2 4.5,16.9 5.7,17 6.1,18.2 6.5,17.1 7.8,17.2 6.8,16.3"/><polygon points="8.4,10.6 7.4,11.3 6.4,10.4 6.7,11.7 5.7,12.4 6.9,12.5 7.3,13.7 7.8,12.6 9,12.7 8,11.8"/><polygon points="3.5,13 3.9,11.8 2.9,12.5 1.9,11.7 2.2,12.9 1.2,13.6 2.4,13.7 2.8,15 3.3,13.8 4.5,13.9"/></svg>