<svg data-name="Layer 1" xmlns="http://www.w3.org/2000/svg" viewBox="0 0 77.2 19.66"><path d="M10.92 0c.54.08 1.08.14 1.61.25a11.24 11.24 0 016.17 3 3.49 3.49 0 011 3.05 2.81 2.81 0 01-.53 1 1.91 1.91 0 01-.32.31 2.72 2.72 0 01.93 1.65 9.73 9.73 0 01.1 1.43v6.1a8 8 0 01-.23 1.53 1.24 1.24 0 01-1.07 1 14 14 0 01-3.88 0 35.94 35.94 0 00-4.5-.38c-1.66 0-3.32.35-5 .52-.88.09-1.76.19-2.63.2a1.66 1.66 0 01-1.71-1.17 18.3 18.3 0 01-.55-2.21c-.13-.57-.22-1.16-.33-1.74v-2.18c.11-.48.23-.95.33-1.43A8.59 8.59 0 011.6 7.45c.35-.51.34-.54-.07-1a2.22 2.22 0 01-.07-3.3 5.77 5.77 0 011.35-1.16A14.82 14.82 0 017.72.23L9.21 0zm-.6 2.22a11.94 11.94 0 00-5.47 1.1 3.4 3.4 0 00-1.66 1.62 1.11 1.11 0 00.18 1.42.93.93 0 01.08 1.31 5.25 5.25 0 00-.43.81 14.67 14.67 0 00-.83 5.53 4.63 4.63 0 00.69 2.36 1.85 1.85 0 002 .91c.48-.09 1-.18 1.41-.29a14.73 14.73 0 016.09-.37 26.71 26.71 0 003.56.38 1.81 1.81 0 002.09-1.7 17.33 17.33 0 00.05-5.52 3.8 3.8 0 00-1-2.34.51.51 0 010-.43 1.33 1.33 0 00.13-1.56 4.47 4.47 0 00-2-2 11.22 11.22 0 00-4.89-1.23zm20.81 9.54a5.48 5.48 0 013.65-5.09 6.67 6.67 0 015.08 0 6 6 0 013.55 6.43 5.64 5.64 0 01-3 4.61c-2.6 1.39-6.65.9-8.4-2.06a6.9 6.9 0 01-.88-3.89zm9.24.57a3.86 3.86 0 00-.68-2.26 2.93 2.93 0 00-4.73-.11 3.73 3.73 0 00-.36 4.06 2.83 2.83 0 003.16 1.71 3.25 3.25 0 002.61-3.4zm15.56 1.08v3.38a1.52 1.52 0 01-2.33 1.25 1.43 1.43 0 01-.48-.57c-.22-.41-.26-.43-.62-.15a5 5 0 01-4.53.91 3.8 3.8 0 01-1.94-6.12 3.84 3.84 0 012.42-1.21 5.18 5.18 0 014.14 1c.27.2.37.17.38-.16a9.5 9.5 0 000-1.51 1.67 1.67 0 00-1.29-1.39 4.48 4.48 0 00-3.76.35 2 2 0 01-.75.26 1 1 0 01-1.06-.61 1.07 1.07 0 01.21-1.22 4 4 0 011.81-1 8.41 8.41 0 015.25 0 3.63 3.63 0 012.54 3.46v3.34zm-5.45 3.09a4.38 4.38 0 002.06-.66c.42-.35.33-.86.42-1.32a1 1 0 00-.44-1 3.42 3.42 0 00-3.3-.38 1.68 1.68 0 00-1.09 1.57 1.63 1.63 0 001.08 1.56 10.25 10.25 0 001.27.23zM63.32 6.22a6.79 6.79 0 012.86.48 5.74 5.74 0 011.1.64 1 1 0 01.32 1.27 1.15 1.15 0 01-1.32.64c-.68-.21-1.43-.41-2.16-.69a2.58 2.58 0 00-2.1.2.93.93 0 00-.57 1 .85.85 0 00.73.71c1.38.39 2.77.74 4.14 1.19a2.9 2.9 0 012 2.75 3.27 3.27 0 01-1.46 3.11 6.21 6.21 0 01-3.56.94 8.11 8.11 0 01-4-.95 3.08 3.08 0 01-.48-.32 1.09 1.09 0 01-.33-1.42 1.14 1.14 0 011.39-.65c.7.22 1.38.51 2.07.76a3.89 3.89 0 002.26.19 1.87 1.87 0 00.4-.13c.45-.22.85-.5.81-1.07s-.44-.76-.9-.88l-3.59-1a3.05 3.05 0 01-2.11-1.51 3.41 3.41 0 011.22-4.43 5.39 5.39 0 013.28-.83zm-39.11 6.39v-3c0-.36-.11-.56-.5-.55-.15 0-.29 0-.43-.05a1.2 1.2 0 01-1.16-1.17 1.28 1.28 0 011.17-1.36c1-.12.91-.1.92-1.06v-.7a1.47 1.47 0 011.46-1.58 1.36 1.36 0 011.53 1.41c0 .44 0 .88.07 1.32s.14.59.61.58a6 6 0 01.74 0 1.35 1.35 0 011.16 1.39 1.19 1.19 0 01-1.18 1.17l-.89.05c-.25 0-.38.12-.38.38v5.21c0 .72.45 1.07 1.38 1.14a1.2 1.2 0 011.26 1.39 1 1 0 01-.65.93 4.47 4.47 0 01-3.86-.22 2.56 2.56 0 01-1.22-2.37c-.05-.97-.03-1.94-.03-2.91zm47.21-.01V9.65c0-.5-.09-.58-.58-.63h-.31a1.15 1.15 0 01-1.2-1.24 1.23 1.23 0 011.15-1.29c1.12-.06.92-.3.94-1a10.48 10.48 0 010-1.12 1.38 1.38 0 011.55-1.23 1.31 1.31 0 011.37 1.3v1.4c0 .46.14.6.64.62a5.75 5.75 0 01.93.09 1.2 1.2 0 011 1.4A1.12 1.12 0 0175.7 9h-.62c-.56 0-.73.14-.73.7v4.74a1.18 1.18 0 001.33 1.32 1.4 1.4 0 011.07.45 1.06 1.06 0 01-.15 1.8 1.76 1.76 0 01-.82.31 11.93 11.93 0 01-2.54-.18 2.43 2.43 0 01-1.81-2.59v-3z" fill="#f0512a"/></svg>