<svg width="24" height="24" viewBox="0 0 24 24" xmlns="http://www.w3.org/2000/svg"><path d="M12 24C5.373 24 0 18.627 0 12S5.373 0 12 0s12 5.373 12 12-5.373 12-12 12zm-2.597-5.625c5.283 0 8.172-4.377 8.172-8.172 0-.124 0-.248-.008-.371A5.844 5.844 0 0019 8.345a5.734 5.734 0 01-1.65.452 2.882 2.882 0 001.263-1.589c-.564.335-1.18.57-1.824.697a2.875 2.875 0 00-4.895 2.62 8.155 8.155 0 01-5.92-3 2.874 2.874 0 00.89 3.833 2.851 2.851 0 01-1.304-.36v.037c0 1.367.964 2.545 2.304 2.816a2.868 2.868 0 01-1.297.049 2.876 2.876 0 002.684 1.994A5.764 5.764 0 015 17.084a8.132 8.132 0 004.403 1.289v.002z" fill="#D8D8D8" fill-rule="evenodd"/></svg>