<svg width="80" height="20" viewBox="0 0 80 20" xmlns="http://www.w3.org/2000/svg"><g fill="none"><path d="M58.434 11.43a2.637 2.637 0 00-2.658-2.658 2.624 2.624 0 00-2.313 1.316 2.683 2.683 0 000 2.683 2.624 2.624 0 002.313 1.316 2.636 2.636 0 002.658-2.658m2.172-4.348v8.697h-2.212v-.785A4.335 4.335 0 0155.593 16c-2.618 0-4.667-2.034-4.667-4.57 0-2.538 2.049-4.571 4.667-4.571a4.335 4.335 0 012.801 1.007V7.08h2.212zm7.354 6.724h-1.665c-.507 0-.832-.221-.832-.684V9.053h2.497V7.081h-2.497V4.603h-2.232v2.478h-1.684v1.972h1.684v4.631c0 1.168.832 2.094 2.334 2.094h2.395v-1.973zM73.002 16C75.56 16 77 14.792 77 13.12c0-1.187-.852-2.073-2.638-2.456l-1.887-.382c-1.096-.201-1.44-.402-1.44-.805 0-.524.527-.85 1.5-.85 1.056 0 1.827.284 2.05 1.249h2.212c-.122-1.813-1.44-3.02-4.119-3.02-2.311 0-3.938.946-3.938 2.778 0 1.268.894 2.094 2.822 2.497l2.11.483c.832.16 1.055.382 1.055.725 0 .544-.63.885-1.644.885-1.278 0-2.008-.283-2.293-1.248h-2.232c.325 1.812 1.685 3.02 4.444 3.02M42 4h8.34v2.014h-6.088v2.878h5.926v1.957h-5.926v2.92h6.088v2.013H42V4z" fill="#06C167"/><path d="M38 8.72V7.134h-.597c-.955 0-1.654.438-2.08 1.13V7.2h-1.706v8.594h1.723V10.91c0-1.331.818-2.19 1.944-2.19H38zm-12.383 1.986c.308-1.314 1.382-2.19 2.661-2.19 1.28 0 2.354.876 2.644 2.19h-5.305zm2.694-3.67a4.417 4.417 0 00-3.159 1.295 4.475 4.475 0 00-1.309 3.17c0 2.562 2.012 4.483 4.622 4.483 1.587 0 2.883-.69 3.752-1.837l-1.245-.91c-.647.86-1.5 1.264-2.507 1.264a2.907 2.907 0 01-2.882-2.443h7.078V11.5c0-2.56-1.842-4.466-4.35-4.466M18.468 14.5a2.962 2.962 0 01-2.117-.862 2.98 2.98 0 012.117-5.1 2.973 2.973 0 012.963 2.983 2.973 2.973 0 01-2.963 2.983m-4.69 1.297h1.705v-1.078A4.367 4.367 0 0018.586 16c2.558 0 4.57-2.006 4.57-4.482 0-2.494-2.012-4.5-4.57-4.5a4.324 4.324 0 00-3.087 1.278V4h-1.723l.001 11.8zm-6.054-1.385c1.655 0 2.934-1.264 2.934-3.135v-7.28h1.791v11.796h-1.774V14.7c-.801.826-1.91 1.298-3.155 1.298C4.962 15.998 3 14.16 3 11.38V4h1.788v7.28c0 1.905 1.262 3.135 2.934 3.135" fill="#142328"/></g></svg>